# xmcd
# 
# Track frame offsets:
#     150
#     28302
#     47275
#     67401
#     90815
#     104775
#     119798
#     129455
#     148721
#     150929
#     167053
#     185605
#     218076
#     236256
#     243986
# 
# Disc length: 3557
# 
# Revision: 0
# Processed by: cddbd v1.5.2PL0 Copyright (c) Steve Scherf et al.
# Submitted via: fre:ac v1.0.27
# 
DISCID=d20de30f
DTITLE=Trevor Baker - It's All In Place
DYEAR=2011
DGENRE=Country
TTITLE0=You Don't Live There Anymore
TTITLE1=They Won't Get In
TTITLE2=It Meant What It Said
TTITLE3=I Don't Understand
TTITLE4=Blend It
TTITLE5=Made To Order God
TTITLE6=Something For Everyone
TTITLE7=You Don't Have The Right
TTITLE8=Defending God's Reputation
TTITLE9=Connect The Dots
TTITLE10=Throw It All Away
TTITLE11=How Great Thou Art
TTITLE12=I Don't Fit In
TTITLE13=What Has Happened
TTITLE14=It's All In Place
EXTD=
EXTT0=
EXTT1=
EXTT2=
EXTT3=
EXTT4=
EXTT5=
EXTT6=
EXTT7=
EXTT8=
EXTT9=
EXTT10=
EXTT11=
EXTT12=
EXTT13=
EXTT14=
PLAYORDER=
